<svg width="41" height="40" viewBox="0 0 41 40" fill="none" xmlns="http://www.w3.org/2000/svg">
<path fill-rule="evenodd" clip-rule="evenodd" d="M20.4958 9.7998C17.7272 9.7998 17.3791 9.81195 16.2903 9.86053C15.2055 9.90911 14.4648 10.0832 13.8172 10.3342C13.1453 10.5933 12.5786 10.9455 12.0119 11.5123C11.4453 12.0791 11.0972 12.6499 10.8341 13.3179C10.5831 13.9656 10.4091 14.7065 10.3605 15.7955C10.3119 16.8805 10.2998 17.2287 10.2998 19.9978C10.2998 22.7669 10.3119 23.1151 10.3605 24.2041C10.4091 25.2891 10.5831 26.0299 10.8341 26.6817C11.0931 27.3538 11.4453 27.9205 12.0119 28.4873C12.5786 29.0541 13.1493 29.4023 13.8172 29.6654C14.4648 29.9164 15.2055 30.0905 16.2943 30.1391C17.3831 30.1877 17.7272 30.1998 20.4998 30.1998C23.2724 30.1998 23.6165 30.1877 24.7053 30.1391C25.79 30.0905 26.5308 29.9164 27.1824 29.6654C27.8543 29.4063 28.421 29.0541 28.9877 28.4873C29.5543 27.9205 29.9024 27.3497 30.1655 26.6817C30.4165 26.034 30.5905 25.2931 30.6391 24.2041C30.6877 23.1151 30.6998 22.771 30.6998 19.9978C30.6998 17.2246 30.6877 16.8805 30.6391 15.7915C30.5905 14.7065 30.4165 13.9656 30.1655 13.3138C29.9065 12.6418 29.5543 12.075 28.9877 11.5082C28.421 10.9415 27.8503 10.5933 27.1824 10.3301C26.5348 10.0791 25.7941 9.90506 24.7053 9.85648C23.6124 9.81195 23.2643 9.7998 20.4958 9.7998ZM20.4996 14.5996C17.52 14.5996 15.0996 17.0158 15.0996 19.9996C15.0996 22.9834 17.5158 25.3996 20.4996 25.3996C23.4834 25.3996 25.8996 22.9834 25.8996 19.9996C25.8996 17.0158 23.4834 14.5996 20.4996 14.5996ZM20.4996 23.5008C18.5633 23.5008 16.9942 21.9318 16.9942 19.9954C16.9942 18.0591 18.5633 16.49 20.4996 16.49C22.4359 16.49 24.005 18.0591 24.005 19.9954C24.005 21.9318 22.4359 23.5008 20.4996 23.5008ZM27.0997 14.5994C27.0997 15.2622 26.5624 15.7994 25.8997 15.7994C25.237 15.7994 24.6997 15.2622 24.6997 14.5994C24.6997 13.9367 25.237 13.3994 25.8997 13.3994C26.5624 13.3994 27.0997 13.9367 27.0997 14.5994Z" fill="white"/>
</svg>
