<svg width="41" height="40" viewBox="0 0 41 40" fill="none" xmlns="http://www.w3.org/2000/svg">
<g clip-path="url(#clip0_357_1282)">
<path d="M30.7283 8H10.2717C9.80179 8 9.35116 8.18666 9.01891 8.51891C8.68666 8.85116 8.5 9.30179 8.5 9.77167V30.2283C8.5 30.6982 8.68666 31.1488 9.01891 31.4811C9.35116 31.8133 9.80179 32 10.2717 32H30.7283C31.1982 32 31.6488 31.8133 31.9811 31.4811C32.3133 31.1488 32.5 30.6982 32.5 30.2283V9.77167C32.5 9.30179 32.3133 8.85116 31.9811 8.51891C31.6488 8.18666 31.1982 8 30.7283 8ZM15.6533 28.445H12.045V16.9833H15.6533V28.445ZM13.8467 15.395C13.4374 15.3927 13.0379 15.2692 12.6987 15.0401C12.3596 14.811 12.0958 14.4865 11.9409 14.1077C11.7859 13.7288 11.7466 13.3126 11.828 12.9115C11.9094 12.5103 12.1078 12.1423 12.3982 11.8538C12.6885 11.5653 13.0578 11.3693 13.4595 11.2905C13.8611 11.2117 14.2771 11.2536 14.655 11.411C15.0328 11.5684 15.3555 11.8342 15.5825 12.1748C15.8094 12.5155 15.9303 12.9157 15.93 13.325C15.9339 13.599 15.8825 13.871 15.779 14.1248C15.6755 14.3786 15.522 14.6089 15.3276 14.8021C15.1332 14.9952 14.9018 15.1473 14.6474 15.2492C14.393 15.351 14.1207 15.4006 13.8467 15.395ZM28.9533 28.455H25.3467V22.1933C25.3467 20.3467 24.5617 19.7767 23.5483 19.7767C22.4783 19.7767 21.4283 20.5833 21.4283 22.24V28.455H17.82V16.9917H21.29V18.58H21.3367C21.685 17.875 22.905 16.67 24.7667 16.67C26.78 16.67 28.955 17.865 28.955 21.365L28.9533 28.455Z" fill="white"/>
</g>
<defs>
<clipPath id="clip0_357_1282">
<rect width="24" height="24" fill="white" transform="translate(8.5 8)"/>
</clipPath>
</defs>
</svg>
