<svg width="41" height="40" viewBox="0 0 41 40" fill="none" xmlns="http://www.w3.org/2000/svg">
<path d="M29.5571 15.1811C29.5664 15.3923 29.5664 15.5939 29.5664 15.8051C29.5756 22.2084 24.8712 29.6004 16.2679 29.6004C13.7305 29.6004 11.2393 28.842 9.1001 27.4212C9.47053 27.4692 9.84096 27.4884 10.2114 27.4884C12.3136 27.4884 14.3602 26.7588 16.0179 25.4052C14.0176 25.3668 12.258 24.0132 11.6468 22.0356C12.3506 22.1796 13.073 22.1508 13.7583 21.9492C11.582 21.5076 10.0169 19.5204 10.0077 17.2068C10.0077 17.1876 10.0077 17.1684 10.0077 17.1492C10.6559 17.5236 11.3875 17.7348 12.1284 17.754C10.0817 16.3331 9.44275 13.5011 10.6837 11.2835C13.0637 14.3171 16.5643 16.1507 20.3241 16.3523C19.9445 14.6723 20.4631 12.9059 21.6762 11.7155C23.5562 9.88193 26.5196 9.97793 28.2977 11.9267C29.3441 11.7155 30.3535 11.3123 31.2704 10.7459C30.9185 11.8691 30.1869 12.8195 29.2145 13.4243C30.1406 13.3091 31.0481 13.0499 31.9001 12.6659C31.2704 13.6451 30.4739 14.4899 29.5571 15.1811Z" fill="white"/>
</svg>
