<svg width="40" height="40" viewBox="0 0 40 40" fill="none" xmlns="http://www.w3.org/2000/svg">
<path d="M29.0571 15.1792C29.0664 15.3904 29.0664 15.592 29.0664 15.8032C29.0756 22.2064 24.3712 29.5984 15.7679 29.5984C13.2305 29.5984 10.7393 28.84 8.6001 27.4192C8.97053 27.4672 9.34096 27.4864 9.71139 27.4864C11.8136 27.4864 13.8602 26.7568 15.5179 25.4032C13.5176 25.3648 11.758 24.0112 11.1468 22.0336C11.8506 22.1776 12.573 22.1488 13.2583 21.9472C11.082 21.5056 9.51691 19.5184 9.50765 17.2048C9.50765 17.1856 9.50765 17.1664 9.50765 17.1472C10.1559 17.5216 10.8875 17.7328 11.6284 17.752C9.58174 16.3312 8.94275 13.4992 10.1837 11.2816C12.5637 14.3152 16.0643 16.1488 19.8241 16.3504C19.4445 14.6704 19.9631 12.904 21.1762 11.7136C23.0561 9.87997 26.0196 9.97597 27.7977 11.9248C28.8441 11.7136 29.8535 11.3104 30.7704 10.744C30.4185 11.8672 29.6869 12.8176 28.7145 13.4224C29.6406 13.3072 30.5481 13.048 31.4001 12.664C30.7704 13.6432 29.9739 14.488 29.0571 15.1792Z" fill="#212529"/>
</svg>
