<svg width="40" height="40" viewBox="0 0 40 40" fill="none" xmlns="http://www.w3.org/2000/svg">
<path fill-rule="evenodd" clip-rule="evenodd" d="M11.2454 24.9627L9.80225 30.2008L15.1865 28.7946C16.67 29.5981 18.3403 30.025 20.0409 30.025H20.0459C25.6421 30.025 30.2038 25.49 30.2038 19.9154C30.2038 17.2135 29.1491 14.6723 27.2316 12.7639C25.3141 10.8554 22.7658 9.80078 20.0459 9.80078C14.4447 9.80078 9.88803 14.3358 9.88298 19.9104C9.88298 21.6882 10.3523 23.4309 11.2454 24.9627ZM16.8266 15.0753C17.0133 15.0804 17.2202 15.0904 17.417 15.5273C17.5431 15.8083 17.7526 16.3191 17.9281 16.7471C18.0758 17.107 18.1994 17.4085 18.2294 17.4659C18.295 17.5965 18.3354 17.7471 18.2496 17.9229C18.2394 17.9437 18.2299 17.9635 18.2207 17.9826C18.1519 18.1253 18.1029 18.227 17.9872 18.3598C17.9398 18.4142 17.8905 18.4738 17.8413 18.5332C17.7543 18.6384 17.6678 18.743 17.5936 18.8168C17.4624 18.9474 17.3261 19.088 17.4775 19.3492C17.6289 19.6103 18.1588 20.4691 18.9409 21.1622C19.7818 21.9107 20.5129 22.2262 20.8826 22.3856C20.9544 22.4166 21.0126 22.4417 21.0552 22.4629C21.3176 22.5935 21.4741 22.5734 21.6254 22.3976C21.7768 22.2219 22.2814 21.6343 22.4581 21.3731C22.6296 21.112 22.8062 21.1572 23.0485 21.2425C23.2907 21.3329 24.5825 21.9657 24.8449 22.0963C24.8966 22.122 24.945 22.1452 24.9898 22.1667C25.1726 22.2544 25.2968 22.3139 25.3495 22.4027C25.4151 22.5131 25.4151 23.0355 25.1981 23.6482C24.9761 24.2609 23.9013 24.8484 23.4219 24.8936C23.376 24.898 23.3304 24.9035 23.2834 24.9092C22.8394 24.9629 22.2759 25.031 20.268 24.2408C17.7943 23.2681 16.1612 20.8548 15.8307 20.3664C15.8046 20.3278 15.7866 20.3012 15.777 20.2883C15.7753 20.286 15.7734 20.2835 15.7714 20.2809C15.6212 20.0799 14.7021 18.8502 14.7021 17.5814C14.7021 16.3676 15.3001 15.7357 15.5729 15.4475C15.5901 15.4292 15.6061 15.4123 15.6205 15.3968C15.8628 15.1356 16.1453 15.0703 16.322 15.0703C16.4986 15.0703 16.6752 15.0703 16.8266 15.0753Z" fill="#212529"/>
</svg>
