<svg width="41" height="40" viewBox="0 0 41 40" fill="none" xmlns="http://www.w3.org/2000/svg">
<path fill-rule="evenodd" clip-rule="evenodd" d="M28.9515 12.903C29.8767 13.1521 30.6062 13.8816 30.8553 14.8068C31.3179 16.4971 31.3001 20.02 31.3001 20.02C31.3001 20.02 31.3001 23.5251 30.8553 25.2153C30.6062 26.1405 29.8767 26.87 28.9515 27.1191C27.2612 27.5639 20.5002 27.5639 20.5002 27.5639C20.5002 27.5639 13.7569 27.5639 12.0488 27.1013C11.1236 26.8522 10.3941 26.1227 10.145 25.1975C9.7002 23.5251 9.7002 20.0022 9.7002 20.0022C9.7002 20.0022 9.7002 16.4971 10.145 14.8068C10.3941 13.8816 11.1414 13.1343 12.0488 12.8852C13.7391 12.4404 20.5002 12.4404 20.5002 12.4404C20.5002 12.4404 27.2612 12.4404 28.9515 12.903ZM23.97 20.0019L18.3477 23.2401V16.7637L23.97 20.0019Z" fill="white"/>
</svg>
